<?xml version="1.0" encoding="UTF-8"?>
<svg id="Layer_2" data-name="Layer 2" xmlns="http://www.w3.org/2000/svg" viewBox="0 0 202.61 48.15">
  <defs>
    <style>
      .cls-1 {
        fill: #421d21;
      }
    </style>
  </defs>
  <g id="Layer_1-2" data-name="Layer 1">
    <path class="cls-1" d="M31.46,17.17c0,5.42.1,19.19-.06,21.43-.54.61-1.46.28-2.56.37-.97-.1-2.53.34-2.62-.7-.03-2.51,0-12.99,0-18.21-.11-2.61.62-9.54-3.85-9.14-3.76.65-4.03,6.07-3.98,8.87-.05,3.64.1,17.02-.07,18.78-.65.76-3.06.27-4.07.38-.59-.06-.95-.02-1.07-.5-.25-4.1.39-17.26-.34-23.73-.31-3.95-4.47-5.33-6.38-1.62-2.05,4.7-.86,9.11-1.16,14.46-.02,4.41.05,7.72-.03,10.87-.03.52-.73.53-2.18.54-2.68-.17-3.2.67-3.04-1.84,0-8.25-.01-27.22.01-30.2.13-.57.6-.37,1.49-.46,1.05.03,2.55-.22,3.2.71.33.47.4.95.75.93.46-.06.86-.57,1.29-.88,2.32-1.96,6.45-1.75,8.37.52.6.5,1.06,1.85,1.8,1.98,1.19-.45,1.84-2.21,3.09-2.78,2.23-1.55,6.02-1.39,8.15.29,2.63,1.92,3.16,6.04,3.28,9.65v.26Z"/>
    <path class="cls-1" d="M61.16,33.99c-.96-.3-1.11-.53-1.37-1.62-.16-2.91-.02-7.77-.06-10.79.05-3.84-.09-7.69-2.2-10.91-4.13-6.79-17.08-6.36-21.23.67-.83,1.31-1.78,3.33-1.82,4.83.04.63.7.86,1.81.98,1.78.21,3.37.4,3.91-1.47,1.34-4.13,5.93-5.5,9.9-4.33,2.67.8,4.04,3.32,4.18,6.23-.1,1.75-1.96,1.4-3.49,1.85-4.84,1.09-9.49,1.27-13.54,4.05-3.67,2.4-4.52,8.35-2.02,11.88,3.78,5.23,12,5.39,17.08,2.05,1.41-.87,2.12-2.2,3.16-.96,1.17,1.72,3.19,2.63,5.38,2.58,2.34.15,2.98-.29,2.98-2.33.11-1.87-.43-2.63-2.39-2.65l-.28-.05ZM50.06,33.71c-2.8,1.33-8.39,1.97-10.3-1.27-1.35-2.57-.02-5.58,2.64-6.36,2.84-1.02,10.27-2.18,11.96-2.57.58,3.5-.47,8.31-4.07,10.08l-.23.12Z"/>
    <path class="cls-1" d="M91.84,33.98c-.96-.31-1.09-.54-1.36-1.62-.16-2.91-.02-7.77-.06-10.79.03-2.96-.02-5.67-.98-8.39-3.1-10.4-21.08-9.54-23.89,1.14-.56,1.63-.86,2.68,1.41,2.81,1.78.21,3.38.4,3.92-1.46,1.34-4.13,5.93-5.51,9.89-4.34,2.68.8,4.07,3.32,4.18,6.23-.12,1.75-1.96,1.4-3.5,1.85-4.84,1.08-9.47,1.27-13.51,4.05-3.68,2.4-4.56,8.35-2.02,11.88,3.78,5.22,12,5.4,17.08,2.05,1.42-.87,2.12-2.2,3.16-.96,1.15,1.73,3.2,2.63,5.38,2.58,2.34.15,2.98-.29,2.98-2.33.11-1.88-.45-2.63-2.4-2.65l-.28-.05ZM85.12,26.21c.1,5.54-4.73,9.14-10.35,8.54-1.59-.14-3.18-.62-4.13-1.99-3.01-6.15,3.72-7.27,8.23-8.04,2.25-.35,4.65-1.11,6.22-1.13.06.23.02,1.75.03,2.39v.23Z"/>
    <path class="cls-1" d="M132.01,12.23c-.3,1.09-.03,4.06-.12,5.9.22,6.35-.49,10.74.37,14.54.51,1.43,2.04,2.05,3.44,2.07.46.05,2.87.03,3.36.02h2.53c.43,0,.82.55.82.97v3.03c0,.48-.38.87-.86.88-.79,0-6.16,0-6.64-.03-5.13-.28-8.46-3.49-8.29-9.07,0-4.28.01-13.14,0-17.68-.02-.67-.18-.75-1.2-.76-2.12-.03-6.56.05-8.33-.03-.78-.05-.9-.61-.92-1.81,0-.73-.04-1.81.13-2.41.21-.81,1.24-.55,3.06-.6h4.97c1.71-.06,2.3.3,2.29-1.47.05-1.4-.09-3.5.07-4.92C126.79-.02,127.76,0,129.26,0c1.32.01,2.29-.02,2.49.62.33,1.63.04,3.85.15,5.49.04.83.19,1.07.81,1.12,1.42.05,5.96,0,8.84.02.48,0,.86.39.86.87v3.12c0,.48-.38.87-.86.87-3.14.01-8.08-.11-9.46.07l-.08.05Z"/>
    <path class="cls-1" d="M173.14,34.68c-2.04-.65-1.27-2.53-1.44-4.74.08-10.04,1.6-23.31-12.25-23.39-5.01,0-8.93,1.91-11.36,5.8-.71,1.33-1.98,3.48-1.5,4.92.33.56,1.99.62,3.32.69,1.32.11,2.01-.71,2.4-1.9,1.38-3.97,6.28-5.24,10.09-3.9,2.45.85,3.73,3.34,3.85,6.1-.11,1.74-1.96,1.4-3.49,1.85-4.74,1.08-9.22,1.26-13.25,3.86-3.88,2.35-4.9,8.45-2.3,12.06,3.79,5.2,12,5.41,17.09,2.07,1.02-.65,1.83-1.6,2.42-1.46,1.09.46,1.66,2.03,2.97,2.46.91.43,2.02.58,3.14.62,2.34.14,2.98-.31,2.97-2.34.11-1.87-.43-2.63-2.39-2.65l-.28-.05ZM166.43,26.93c0,2.81-1.37,5.8-3.95,7.25-2.61,1.48-7.81,2.27-10.33-.43-1.36-1.58-1.14-4.67.36-5.84,2.23-1.82,5.05-1.9,7.89-2.54,2.17-.33,4.48-1.06,6.01-1.07.06.23.03,1.75.03,2.39v.23Z"/>
    <path class="cls-1" d="M202.61,6.97c-1.85,6.71-11.92,32.72-12.66,35.31-.8,2.26-2.48,4.68-4.86,5.32-1.78.55-4.21.64-6.33.48-.43-.07-.75-.23-.94-.52-.41-.94-.6-3.34.31-3.98,1.5-.59,4.09.03,5.33-.84,2.64-1.71,1.45-4.3.48-6.59-2.56-6.55-10.56-26.74-11.31-28.82-.03-.22.21-.28.94-.31,1.02-.02,3.02-.05,3.86,0,.54.05.77.07.98.48.86,2.17,5.6,14.54,8.08,20.99,1.09,2.5,1.44,4.54,1.71,3.7.81-2.25,7.71-21.94,8.72-24.74.23-.48.47-.44,1.15-.5.95-.04,3.5-.06,4.43,0l.12.02Z"/>
    <path class="cls-1" d="M106.69,16.13c4.29-.31,8.85,1.85,9.42,6.39.4,3.2-1.73,8.06-5.51,8.88-5.29,1.14-11.58-2.29-10.77-8.41.42-3.17,3.13-6.58,6.85-6.85ZM110.93,21.34c-.76-.76-3-1.8-5.07-.35-1.51,1.06-2.11,4.23-.18,5.36,4.9,2.86,7.35-2.9,5.25-5.01Z"/>
  </g>
</svg>