<?xml version="1.0" encoding="UTF-8"?>
<svg id="Layer_2" data-name="Layer 2" xmlns="http://www.w3.org/2000/svg" viewBox="0 0 63 35.84">
  <defs>
    <style>
      .cls-1 {
        fill: #421d21;
      }
    </style>
  </defs>
  <g id="Layer_1-2" data-name="Layer 1">
    <path class="cls-1" d="M27.81,35.35c-.48.55-1.29.24-2.26.34-.86-.1-2.24.31-2.33-.62-.03-2.21,0-11.49,0-16.13-.12-2.31.54-8.45-3.43-8.09-3.33.57-3.57,5.37-3.52,7.85-.05,3.23.09,15.08-.07,16.63-.57.69-2.69.24-3.59.33-.53-.04-.84,0-.96-.45-.21-3.62.34-15.27-.31-21.01-.26-3.5-3.94-4.71-5.63-1.43-1.84,4.17-.77,8.07-1.05,12.8-.02,3.91.05,6.83-.02,9.64-.03.45-.65.48-1.93.48-2.38-.15-2.83.59-2.69-1.64C.02,26.74.02,9.94.04,7.3c.1-.5.53-.31,1.31-.4.93.05,2.26-.19,2.83.64.29.4.36.83.67.81.4-.05.76-.5,1.14-.76,2.05-1.74,5.71-1.55,7.42.45.53.45.93,1.64,1.6,1.76,1.05-.4,1.62-1.95,2.71-2.47,2-1.38,9.04-.88,10.66-.93h4.4c1.5-.05,2.02.28,2.02-1.29.05-1.26-.07-3.09.08-4.35C34.95-.03,35.83,0,37.14,0c1.16,0,2.04-.03,2.21.55.28,1.42.05,3.4.14,4.85.03.74.17.95.72,1,1.64.05,8.01-.05,9.65.05,1.17.16.6,2.4.69,3.26-.07.59-.14.9-.69.97-1.97.12-8.66-.12-10.23.1l-.04.04c-.29.96-.05,3.6-.12,5.21.05,1.27.05,2.41.02,3.5,0,1.07-.02,2.05-.02,2.98-.05.9-.05,1.73-.05,2.54,0,1.64.07,3.12.38,4.5.45,1.28,1.81,1.81,3.05,1.83,1.21.12,4.18-.07,6.11.05-.43-.98-.59-2.1-.43-3.36.38-2.8,2.79-5.83,6.07-6.06,3.81-.27,7.85,1.64,8.35,5.66.36,2.83-1.52,7.14-4.88,7.87-2.61.55-13.08.17-14.61.17-5.28.26-8.82-2.64-8.66-8.04V11.37c-.02-.59-.16-.67-1.07-.67-1.64-.02-4.85.03-6.68-.02.57,1.67.76,3.64.81,5.45v.24c0,4.8.09,16.99-.05,18.98ZM53.72,31.07c4.33,2.52,6.49-2.57,4.64-4.45-.67-.66-2.64-1.59-4.5-.31-1.33.95-1.85,3.76-.14,4.76Z"/>
  </g>
</svg>